<?xml version="1.0" encoding="UTF-8"?>
<!-- Generated by Pixelmator Pro 3.8 -->
<svg width="128" height="128" viewBox="0 0 128 128" xmlns="http://www.w3.org/2000/svg">
    <path id="Path" fill="none" stroke="#ffffff" stroke-width="9" stroke-linecap="round" stroke-linejoin="round" d="M 24 92.849998 C 24 99.530273 24 102.870407 25.402544 105.374832 C 26.393784 107.144821 27.855181 108.606216 29.625166 109.597458 C 32.129589 111 35.469727 111 42.150002 111 L 85.849998 111 C 92.530273 111 95.870407 111 98.374832 109.597458 C 100.144821 108.606216 101.606216 107.144821 102.597458 105.374832 C 104 102.870407 104 99.530273 104 92.849998 C 104 75.849998 104 56.150002 104 56.150002 L 65.849998 18 L 42.150002 18 C 35.469727 18 32.129589 18 29.625166 19.402542 C 27.855181 20.393784 26.393784 21.855179 25.402544 23.625168 C 24 26.129593 24 29.469727 24 36.150002 Z"/>
    <path id="path1" fill="none" stroke="#ffffff" stroke-width="9" stroke-linecap="round" stroke-linejoin="round" d="M 63 18 C 63 18 63 41.888618 63 50.888618 C 63 55.888618 66 59 71 59 C 78 59 104 59 104 59"/>
</svg>
